<svg width="173" height="54" viewBox="0 0 173 54" fill="none" xmlns="http://www.w3.org/2000/svg">
<path d="M40.6494 25.9353C40.6494 25.7282 40.6455 25.521 40.6379 25.3139V0H0V33.4003V33.792C0 44.8425 9.1159 53.8329 20.3208 53.8329C31.392 53.8329 40.4241 45.0534 40.6341 34.1875H40.6379V33.7958V33.4041V26.3308H40.6494V25.9353ZM36.6546 25.5436C36.4408 16.8433 29.2038 9.82652 20.3285 9.82652C11.4532 9.82652 4.21615 16.8433 4.00229 25.5436H0.813468C1.02352 15.1069 9.70023 6.68157 20.3323 6.68157C30.8955 6.68157 39.5224 14.9977 39.8431 25.3403V25.5436H36.6546ZM32.679 25.5436H32.6714C32.4613 19.0089 27.0079 13.7548 20.3285 13.7548C13.6529 13.7548 8.19935 19.0089 7.98549 25.5436H7.97403H4.79285C5.00672 17.2764 11.8923 10.6136 20.3246 10.6136C28.7607 10.6136 35.6467 17.2764 35.8567 25.5436H32.679ZM39.8278 34.4775C39.824 34.5603 39.824 34.647 39.8163 34.7298C39.8125 34.8089 39.8087 34.8918 39.8011 34.9709C39.7973 35.0537 39.7896 35.1366 39.7858 35.2195C39.7782 35.2985 39.7705 35.3814 39.7667 35.4605C39.7591 35.5396 39.7514 35.6225 39.7438 35.7016C39.7362 35.7844 39.7247 35.8635 39.7171 35.9464C39.7095 36.0255 39.698 36.1046 39.6904 36.1799C39.6789 36.2627 39.6675 36.3456 39.656 36.4247C39.6445 36.5 39.6331 36.5791 39.6216 36.6544C39.6102 36.7373 39.5949 36.8202 39.5835 36.903C39.572 36.9783 39.5606 37.0537 39.5453 37.129C39.53 37.2119 39.5148 37.2947 39.4995 37.3776C39.4842 37.4529 39.4728 37.5245 39.4575 37.5998C39.4422 37.6827 39.4231 37.7655 39.404 37.8484C39.3888 37.9199 39.3735 37.9915 39.3582 38.0631C39.3391 38.1459 39.3201 38.2288 39.2971 38.3117C39.2781 38.3832 39.2628 38.451 39.2437 38.5226C39.2208 38.6054 39.1979 38.6883 39.1788 38.7711C39.1597 38.8389 39.1406 38.9105 39.1215 38.9783C39.0986 39.0612 39.0719 39.144 39.049 39.2269C39.0299 39.2947 39.007 39.3625 38.9879 39.4303C38.9612 39.5131 38.9345 39.596 38.9077 39.6788C38.8848 39.7466 38.8657 39.8107 38.8428 39.8747C38.8161 39.9576 38.7856 40.0404 38.755 40.1233C38.7321 40.1873 38.7092 40.2513 38.6863 40.3191C38.6558 40.402 38.6252 40.4848 38.5947 40.5639C38.5718 40.628 38.5451 40.692 38.5222 40.756C38.4916 40.8389 38.4573 40.9217 38.4229 41.0008C38.3962 41.0649 38.3733 41.1251 38.3465 41.1892C38.3122 41.272 38.2778 41.3511 38.2397 41.434C38.2129 41.4942 38.1862 41.5545 38.1595 41.6185C38.1213 41.6976 38.0869 41.7805 38.0488 41.8596C38.022 41.9198 37.9915 41.9801 37.9648 42.0404C37.9266 42.1194 37.8884 42.1985 37.8464 42.2814C37.8159 42.3417 37.7853 42.3982 37.7579 42.4584C37.7159 42.5375 37.6777 42.6166 37.6357 42.6919C37.6052 42.7522 37.5746 42.8087 37.5403 42.869C37.5021 42.9405 37.4601 43.0121 37.4219 43.0874L21.8102 34.1988H39.8393C39.8393 34.2176 39.8393 34.2327 39.8393 34.2515C39.8354 34.3193 39.8316 34.3984 39.8278 34.4775ZM36.834 44.0554C36.7844 44.1307 36.7385 44.206 36.6889 44.2776C36.6546 44.3303 36.6164 44.3868 36.582 44.4395C36.5324 44.5149 36.4828 44.5864 36.4293 44.6618C36.3911 44.7145 36.353 44.7672 36.3186 44.8199C36.2652 44.8915 36.2155 44.9631 36.1621 45.0384C36.1239 45.0911 36.0857 45.1439 36.0475 45.1966C35.9941 45.2681 35.9407 45.3397 35.8872 45.4113C35.849 45.464 35.807 45.513 35.7689 45.5657C35.7154 45.6372 35.6581 45.705 35.6047 45.7728C35.5627 45.8218 35.5199 45.8745 35.4818 45.9235C35.4245 45.9913 35.3672 46.0591 35.3103 46.1269C35.2683 46.1758 35.2263 46.2248 35.1842 46.2775C35.127 46.3453 35.0697 46.4131 35.0086 46.4771C34.9665 46.5261 34.9207 46.5751 34.8787 46.624C34.8176 46.6881 34.7604 46.7559 34.6992 46.8199C34.6534 46.8689 34.6114 46.914 34.5656 46.963C34.5044 47.027 34.4434 47.0911 34.3823 47.1551C34.3365 47.2003 34.2906 47.2493 34.2448 47.2945C34.1837 47.3585 34.1188 47.4187 34.0576 47.4828C34.0118 47.528 33.9622 47.5732 33.9164 47.6184C33.8514 47.6786 33.7903 47.7389 33.7254 47.7991C33.6758 47.8443 33.6299 47.8895 33.5803 47.931C33.5154 47.9912 33.4505 48.0477 33.3855 48.108C33.3359 48.1532 33.2862 48.1946 33.2366 48.2398C33.1716 48.2963 33.1029 48.3566 33.038 48.4131C32.9883 48.4583 32.9349 48.4997 32.8814 48.5411C32.8127 48.5976 32.7477 48.6503 32.679 48.7068C32.6255 48.7483 32.5721 48.7897 32.5224 48.8311C32.4537 48.8839 32.385 48.9404 32.3162 48.9931C32.2627 49.0345 32.2093 49.0759 32.1558 49.1136C32.087 49.1663 32.0183 49.2191 31.9458 49.268C31.8923 49.3095 31.835 49.3471 31.7815 49.3885C31.7128 49.4375 31.6402 49.4902 31.5677 49.5392C31.5104 49.5769 31.4531 49.6183 31.3958 49.656C31.3233 49.7049 31.2545 49.7539 31.1819 49.7991C31.1247 49.8368 31.0674 49.8744 31.0101 49.9121C30.9375 49.9573 30.865 50.0062 30.7925 50.0514C30.7351 50.0891 30.674 50.123 30.6168 50.1607C30.5595 50.1946 30.5022 50.2322 30.4449 50.2661L21.4321 34.8692L37.044 43.7578C37.0172 43.803 36.9905 43.8444 36.9638 43.8896C36.9027 43.9424 36.8683 43.9989 36.834 44.0554ZM29.3717 50.8499C29.2954 50.8876 29.2229 50.929 29.1464 50.9667C29.0815 51.0006 29.0166 51.0307 28.9517 51.0608C28.8753 51.0985 28.7989 51.1362 28.7225 51.1701C28.6576 51.2002 28.5927 51.2303 28.5239 51.2605C28.4476 51.2944 28.3712 51.332 28.2948 51.3659C28.2261 51.396 28.1612 51.4224 28.0924 51.4525C28.016 51.4864 27.9397 51.5203 27.8632 51.5505C27.7945 51.5806 27.7258 51.607 27.6571 51.6333C27.5807 51.6635 27.5043 51.6974 27.4241 51.7275C27.3553 51.7538 27.2828 51.7802 27.2141 51.8066C27.1376 51.8367 27.0575 51.8631 26.9811 51.8932C26.9085 51.9196 26.8398 51.9422 26.7672 51.9685C26.6908 51.9949 26.6107 52.0213 26.5342 52.0476C26.4617 52.0702 26.3892 52.0928 26.3166 52.1192C26.2402 52.1456 26.16 52.1682 26.0836 52.1945C26.0111 52.2171 25.9347 52.2397 25.8583 52.2586C25.7819 52.2812 25.7017 52.3038 25.6253 52.3264C25.549 52.349 25.4726 52.3678 25.3962 52.3866C25.3198 52.4092 25.2397 52.428 25.1594 52.4506C25.0831 52.4695 25.0029 52.4883 24.9265 52.5071C24.8501 52.526 24.7699 52.5448 24.6935 52.5636C24.6133 52.5825 24.5331 52.5975 24.4529 52.6164C24.3766 52.6314 24.2963 52.6503 24.22 52.6653C24.1398 52.6804 24.0595 52.6955 23.9756 52.7105C23.8992 52.7256 23.8228 52.7407 23.7426 52.7557C23.6586 52.7708 23.5784 52.7821 23.4944 52.7971C23.4179 52.8084 23.3416 52.8235 23.2614 52.8348C23.1774 52.8461 23.0934 52.8574 23.0056 52.8687C22.9291 52.88 22.8528 52.8913 22.7764 52.8988C22.6885 52.9101 22.6007 52.9177 22.5128 52.929C22.4403 52.9365 22.364 52.9478 22.2914 52.9553C22.1997 52.9629 22.1043 52.9704 22.0126 52.9817C21.9439 52.9892 21.8713 52.993 21.8025 53.0005C21.7033 53.0081 21.6078 53.0118 21.5085 53.0194C21.4436 53.0231 21.3748 53.0269 21.3099 53.0307C21.2068 53.0344 21.0999 53.0382 20.9968 53.042C20.9356 53.0457 20.8745 53.0457 20.8135 53.0495C20.7791 53.0495 20.7447 53.0495 20.7141 53.0495V35.2684L29.7269 50.6654C29.6697 50.6955 29.6123 50.7294 29.5551 50.7595C29.4978 50.7859 29.4329 50.816 29.3717 50.8499ZM19.6372 53.0344C19.5341 53.0307 19.4271 53.0269 19.324 53.0231C19.2591 53.0194 19.1903 53.0156 19.1254 53.0118C19.0262 53.0043 18.9268 53.0005 18.8314 52.993C18.7588 52.9892 18.6901 52.9817 18.6214 52.9742C18.5297 52.9666 18.4342 52.9591 18.3426 52.9478C18.2662 52.9403 18.1936 52.9327 18.1211 52.9214C18.0332 52.9101 17.9454 52.9026 17.8575 52.8913C17.7812 52.8838 17.7048 52.8687 17.6284 52.8612C17.5444 52.8499 17.4566 52.8386 17.3725 52.8273C17.2962 52.816 17.2198 52.8009 17.1396 52.7896C17.0556 52.7746 16.9753 52.7633 16.8913 52.7482C16.815 52.7331 16.7386 52.7181 16.6584 52.703C16.5782 52.6879 16.4942 52.6729 16.414 52.6578C16.3376 52.6427 16.2574 52.6239 16.181 52.6088C16.1009 52.5938 16.0206 52.5749 15.9404 52.5561C15.864 52.5373 15.7838 52.5184 15.7075 52.4996C15.6311 52.4808 15.5509 52.4619 15.4745 52.4431C15.3943 52.4243 15.3179 52.4017 15.2378 52.3791C15.1613 52.3602 15.085 52.3376 15.0086 52.3188C14.9284 52.2962 14.852 52.2736 14.7757 52.251C14.6992 52.2284 14.6267 52.2096 14.5503 52.187C14.4701 52.1644 14.3937 52.138 14.3174 52.1117C14.2448 52.0891 14.1722 52.0665 14.0997 52.0401C14.0195 52.0137 13.9431 51.9874 13.8667 51.961C13.7941 51.9346 13.7254 51.912 13.6529 51.8857C13.5765 51.8593 13.4963 51.8292 13.4199 51.799C13.3511 51.7727 13.2786 51.7463 13.2099 51.7199C13.1335 51.6898 13.0571 51.6597 12.9769 51.6258C12.9081 51.5994 12.8394 51.5693 12.7707 51.5429C12.6943 51.5128 12.6179 51.4789 12.5416 51.445C12.4728 51.4149 12.4041 51.3885 12.3392 51.3584C12.2627 51.3245 12.1864 51.2906 12.11 51.2529C12.045 51.2228 11.9801 51.1927 11.9114 51.1625C11.835 51.1249 11.7586 51.091 11.6823 51.0533C11.6173 51.0232 11.5524 50.9893 11.4875 50.9591C11.4111 50.9215 11.3385 50.8838 11.2622 50.8424C11.1972 50.8085 11.1361 50.7784 11.0712 50.7445C11.014 50.7143 10.9566 50.6842 10.8994 50.6503L19.9122 35.2534V53.0344C19.8778 53.0344 19.8434 53.0344 19.8128 53.0344C19.7594 53.042 19.6983 53.0382 19.6372 53.0344ZM9.86829 50.0514C9.79568 50.0062 9.72314 49.9573 9.6506 49.9121C9.59326 49.8744 9.536 49.8368 9.47873 49.7991C9.40612 49.7501 9.3374 49.7049 9.26486 49.656C9.2076 49.6183 9.15026 49.5806 9.09299 49.5392C9.02046 49.4902 8.95166 49.4375 8.87913 49.3885C8.82568 49.3509 8.76841 49.3095 8.71489 49.268C8.64617 49.2153 8.57364 49.1626 8.50484 49.1136C8.45139 49.0722 8.39795 49.0345 8.3445 48.9931C8.27571 48.9404 8.20699 48.8876 8.13827 48.8311C8.08475 48.7897 8.0313 48.7483 7.98167 48.7068C7.91295 48.6503 7.84798 48.5976 7.77926 48.5411C7.72581 48.4997 7.67618 48.4545 7.62266 48.4131C7.55394 48.3566 7.48904 48.3001 7.42414 48.2398C7.37443 48.1946 7.3248 48.1532 7.27517 48.108C7.21027 48.0477 7.1453 47.9912 7.0804 47.931C7.03077 47.8858 6.98495 47.8406 6.93525 47.7991C6.87035 47.7389 6.80545 47.6786 6.74429 47.6184C6.69848 47.5732 6.64885 47.528 6.60303 47.4828C6.53813 47.4225 6.47698 47.3585 6.41589 47.2945C6.37008 47.2493 6.32427 47.2003 6.27838 47.1551C6.2173 47.0911 6.15621 47.027 6.09513 46.963C6.04924 46.914 6.00343 46.8689 5.96144 46.8199C5.90036 46.7559 5.84301 46.6918 5.78193 46.624C5.73612 46.5751 5.69412 46.5261 5.65213 46.4771C5.59479 46.4093 5.53371 46.3453 5.47644 46.2775C5.43445 46.2286 5.39238 46.1796 5.35038 46.1269C5.29312 46.0591 5.23585 45.9913 5.17851 45.9235C5.13652 45.8745 5.09452 45.8218 5.05635 45.7728C4.99908 45.705 4.94556 45.6335 4.88829 45.5657C4.85011 45.513 4.80812 45.464 4.76994 45.4113C4.71642 45.3397 4.66297 45.2681 4.60952 45.1966C4.57135 45.1439 4.53317 45.0911 4.49492 45.0384C4.44147 44.9668 4.39184 44.8953 4.33839 44.8199C4.30014 44.7672 4.26197 44.7145 4.22761 44.6618C4.17798 44.5902 4.12453 44.5149 4.07482 44.4395C4.03665 44.3868 4.00229 44.3303 3.96793 44.2776C3.9183 44.2023 3.86867 44.1269 3.82278 44.0554C3.78842 43.9989 3.75406 43.9461 3.7197 43.8896C3.69298 43.8444 3.66626 43.803 3.63946 43.7578L19.2515 34.8692L10.2387 50.2661C10.1814 50.2322 10.1241 50.1983 10.0668 50.1607C9.98663 50.123 9.92555 50.0853 9.86829 50.0514ZM3.00557 42.6844C2.9635 42.6053 2.92151 42.5262 2.88333 42.4509C2.85279 42.3906 2.82225 42.3341 2.79552 42.2739C2.75735 42.1948 2.71528 42.1157 2.6771 42.0328C2.64656 41.9726 2.61983 41.9123 2.59311 41.852C2.55493 41.7729 2.51668 41.6901 2.48232 41.611C2.4556 41.5507 2.42887 41.4867 2.40215 41.4264C2.36779 41.3473 2.33343 41.2645 2.299 41.1854C2.27228 41.1214 2.24555 41.0611 2.22264 40.9971C2.18829 40.9142 2.15774 40.8351 2.12338 40.7523C2.09666 40.6882 2.07368 40.6242 2.05077 40.5602C2.02023 40.4773 1.98969 40.3945 1.95915 40.3154C1.93624 40.2513 1.91334 40.1873 1.89043 40.1195C1.85981 40.0366 1.83309 39.9538 1.80255 39.8709C1.77964 39.8069 1.76055 39.7391 1.73765 39.6751C1.71092 39.5922 1.6842 39.5094 1.65748 39.4265C1.63831 39.3587 1.61541 39.2909 1.59632 39.2231C1.57341 39.1402 1.54669 39.0574 1.52378 38.9745C1.5047 38.9067 1.48561 38.8389 1.46652 38.7674C1.44361 38.6845 1.4207 38.6017 1.40154 38.5188C1.38245 38.4472 1.36718 38.3794 1.34809 38.3079C1.329 38.225 1.3061 38.1422 1.28701 38.0593C1.27174 37.9877 1.25647 37.9162 1.2412 37.8446C1.22211 37.7618 1.20684 37.6789 1.18768 37.596C1.17241 37.5245 1.15713 37.4491 1.14568 37.3738C1.13041 37.291 1.11514 37.2081 1.09987 37.1252C1.08842 37.0499 1.07315 36.9746 1.06169 36.8993C1.04642 36.8164 1.03497 36.7335 1.02352 36.6507C1.01206 36.5754 1.00061 36.4963 0.989156 36.4209C0.977703 36.3381 0.966175 36.2552 0.954722 36.1761C0.943269 36.097 0.935634 36.0179 0.927999 35.9426C0.920363 35.8597 0.908911 35.7806 0.901275 35.6978C0.89364 35.6187 0.886003 35.5358 0.878367 35.4567C0.870732 35.3776 0.863098 35.2948 0.859281 35.2157C0.851645 35.1328 0.847827 35.05 0.84401 34.9671C0.840192 34.888 0.832556 34.8089 0.828739 34.7261C0.824921 34.6432 0.821104 34.5566 0.817286 34.4737C0.813468 34.3946 0.809649 34.3155 0.809649 34.2364C0.809649 34.2176 0.809649 34.2025 0.809649 34.1837H18.839L3.22707 43.0723C3.185 43.0008 3.14683 42.9292 3.10865 42.8539C3.07047 42.8012 3.03611 42.7409 3.00557 42.6844ZM7.97785 26.327V33.4003H0.805834V26.327H3.99465H7.97785ZM11.9649 26.327H15.9481V33.4003H8.77605V26.327H11.9649ZM31.8732 26.327V33.4003H24.7126V26.327H28.6958H31.8732ZM23.9145 26.327V33.4003H16.7424V26.327H23.9145ZM16.7654 25.5436C16.9639 23.7772 18.4877 22.3987 20.3285 22.3987C22.1692 22.3987 23.693 23.7772 23.8916 25.5436H16.7654ZM24.7126 25.5436H24.6935C24.4911 23.3441 22.6122 21.6153 20.3285 21.6153C18.0447 21.6153 16.1658 23.3441 15.9633 25.5436H15.9443H12.7669C12.9769 21.6078 16.2879 18.4703 20.3285 18.4703C24.3689 18.4703 27.68 21.6078 27.89 25.5436H24.7126ZM31.8732 25.5436H28.6843C28.4743 21.1746 24.8081 17.6832 20.3285 17.6832C15.8487 17.6832 12.1787 21.1746 11.9725 25.5436H8.78369C8.99373 19.4421 14.0921 14.542 20.3323 14.542C26.5687 14.542 31.667 19.4421 31.8732 25.5436ZM39.8431 0.787173V20.3385C37.3799 12.0034 29.5665 5.89439 20.3323 5.89439C11.0712 5.89439 3.23852 12.0373 0.798197 20.4063V0.783411H39.8431V0.787173ZM39.8431 33.4003H32.679V26.327H36.6622H39.8393V33.4003H39.8431Z" fill="#F9FAFB"/>
<path d="M56.2927 19.5869C54.9909 19.5869 53.9763 19.3322 53.2454 18.8193C52.5145 18.3064 52.1509 17.668 52.1509 16.9041C52.1509 15.9966 52.6236 15.5411 53.5727 15.5411C53.5872 16.8144 53.8272 17.772 54.2927 18.4212C54.7581 19.0704 55.4745 19.3932 56.4345 19.3932C57.2745 19.3932 57.9581 19.1528 58.4781 18.6723C58.9981 18.1916 59.2563 17.4743 59.2563 16.5131C59.2563 15.9284 59.1472 15.455 58.929 15.0928C58.7108 14.7305 58.3618 14.4005 57.8817 14.11C57.4018 13.8195 56.7727 13.4967 55.9981 13.1452C55.5909 12.9515 55.1727 12.7399 54.7472 12.5139C54.3181 12.288 53.9254 12.0154 53.5654 11.6962C53.2018 11.3769 52.9145 10.9932 52.6963 10.5377C52.4781 10.0822 52.3691 9.53342 52.3691 8.88418C52.3691 7.71854 52.7472 6.82902 53.5036 6.2193C54.26 5.60958 55.2709 5.30469 56.5327 5.30469C57.2963 5.30469 57.9654 5.40875 58.5436 5.61672C59.1217 5.82477 59.5726 6.09736 59.8963 6.43449C60.2199 6.77169 60.3799 7.14105 60.3799 7.5428C60.3799 7.91938 60.2345 8.21353 59.9472 8.42872C59.6563 8.6439 59.2817 8.75149 58.8236 8.75149C58.8236 7.67549 58.6454 6.86494 58.2927 6.31976C57.9363 5.77458 57.3472 5.50199 56.5181 5.50199C55.7545 5.50199 55.1472 5.72792 54.6927 6.18346C54.2381 6.63893 54.0127 7.30605 54.0127 8.18843C54.0127 8.82325 54.1327 9.33612 54.369 9.72712C54.6054 10.118 54.9618 10.4516 55.4345 10.7278C55.9072 11.0076 56.5145 11.316 57.249 11.6531C57.9072 11.9508 58.5145 12.2628 59.0745 12.5857C59.6345 12.9085 60.0854 13.321 60.4272 13.8195C60.769 14.318 60.9399 14.9636 60.9399 15.7563C60.9399 16.9363 60.5363 17.8724 59.7254 18.5575C58.9072 19.2462 57.7654 19.5869 56.2927 19.5869Z" fill="#F9FAFB"/>
<path d="M66.2227 19.5869C65.2607 19.5869 64.5091 19.3283 63.9609 18.8074C63.4126 18.2865 63.1367 17.5725 63.1367 16.6619C63.1367 15.6492 63.4885 14.8915 64.1953 14.3888C64.8987 13.8898 65.9675 13.6129 67.402 13.5583L68.9535 13.5V12.0211C68.9535 11.2816 68.9156 10.6769 68.8398 10.2034C68.7639 9.72986 68.6019 9.37648 68.3536 9.14702C68.1053 8.91756 67.7226 8.80097 67.2123 8.80097C66.4882 8.80097 66.0262 9.03775 65.8193 9.51131C65.6124 9.98481 65.509 10.7315 65.509 11.7442C64.9849 11.7442 64.5884 11.6532 64.3229 11.4674C64.0539 11.2816 63.9195 10.9793 63.9195 10.5567C63.9195 10.0832 64.0712 9.70437 64.378 9.4202C64.6849 9.13611 65.0883 8.92848 65.5951 8.79731C66.0986 8.66621 66.6641 8.60059 67.2882 8.60059C68.4364 8.60059 69.2914 8.85926 69.8604 9.37289C70.4293 9.88652 70.712 10.768 70.712 12.0211V17.9295C70.712 18.4031 70.7982 18.7345 70.9741 18.9167C71.1499 19.1024 71.4465 19.1935 71.8706 19.1935H71.9258V19.3902H69.1018V17.3139H69.0673C68.8673 18.1043 68.5156 18.6799 68.0088 19.0441C67.5053 19.4084 66.9089 19.5869 66.2227 19.5869ZM66.5986 19.3101C67.0606 19.3101 67.4675 19.1862 67.8226 18.9349C68.1778 18.6836 68.457 18.3484 68.6536 17.9258C68.8535 17.5033 68.9535 17.0517 68.9535 16.5635V13.7185L67.7571 13.7768C66.6986 13.8279 65.9641 14.0865 65.5607 14.5491C65.1538 15.0117 64.9539 15.7876 64.9539 16.8804C64.9504 18.5014 65.4987 19.3101 66.5986 19.3101Z" fill="#F9FAFB"/>
<path d="M73.0249 19.5869V19.3854H73.278C73.8447 19.3854 74.2512 19.2623 74.4971 19.0199C74.743 18.7774 74.8642 18.3782 74.8642 17.8261V5.98554C74.8642 5.41851 74.743 5.01558 74.4971 4.76942C74.2512 4.52693 73.8447 4.40384 73.278 4.40384H73.0249V4.20605H76.6787V17.7254C76.6787 18.3185 76.7999 18.7438 77.0458 19.0012C77.2918 19.2586 77.6982 19.3854 78.265 19.3854H78.5181V19.5869H73.0249Z" fill="#F9FAFB"/>
<path d="M79.6167 19.5869V19.3958H79.8697C80.4361 19.3958 80.8422 19.2791 81.088 19.0491C81.3338 18.8192 81.4549 18.4406 81.4549 17.917V10.99C81.4549 10.4522 81.3338 10.0701 81.088 9.83667C80.8422 9.6067 80.4361 9.4899 79.8697 9.4899H79.8127V9.29892H83.2717V17.8215C83.2717 18.384 83.3928 18.7873 83.6386 19.0314C83.8844 19.2755 84.2905 19.3958 84.8569 19.3958H85.1099V19.5869H79.6167ZM82.2635 7.4557C82.0177 7.4557 81.8147 7.37432 81.6544 7.21513C81.4941 7.05593 81.4121 6.77639 81.4121 6.38019C81.4121 5.96976 81.4941 5.69029 81.6544 5.53466C81.8147 5.38251 82.0177 5.30469 82.2635 5.30469C82.4951 5.30469 82.6946 5.38251 82.862 5.53466C83.0294 5.68673 83.115 5.96976 83.115 6.38019C83.115 6.77639 83.0294 7.05593 82.862 7.21513C82.6946 7.37787 82.4951 7.4557 82.2635 7.4557Z" fill="#F9FAFB"/>
<path d="M86.208 19.5832V19.3829H86.3705C86.9983 19.3829 87.4369 19.2494 87.6827 18.9786C87.9284 18.7115 88.0533 18.2294 88.0533 17.5283V10.8112C88.0533 10.1288 87.9361 9.65395 87.7054 9.39436C87.4709 9.13103 87.0437 9.0012 86.4122 9.0012H86.31V8.80089H89.9628V10.6926H90.0044C90.1821 10.0768 90.4468 9.61689 90.7946 9.31278C91.1425 9.01232 91.5206 8.81573 91.9215 8.73042C92.3261 8.64511 92.6966 8.60059 93.0408 8.60059C94.2583 8.60059 95.1658 8.91216 95.7595 9.5353C96.3531 10.1584 96.6518 11.1636 96.6518 12.5433V17.5321C96.6518 18.2294 96.7615 18.7115 96.9808 18.9823C97.2001 19.2494 97.6047 19.3866 98.1908 19.3866H98.293V19.5869H94.7234V11.8572C94.7234 10.9856 94.557 10.2734 94.2205 9.72442C93.884 9.17548 93.3206 8.90105 92.5265 8.90105C91.8837 8.90105 91.377 9.06795 91.0102 9.40547C90.6397 9.73926 90.3787 10.1733 90.2199 10.7037C90.0611 11.234 89.9855 11.7867 89.9855 12.3653V17.5321C89.9855 18.2294 90.1027 18.7115 90.3334 18.9823C90.564 19.2494 90.9951 19.3866 91.6265 19.3866H91.7286V19.5869H86.208V19.5832Z" fill="#F9FAFB"/>
<path d="M104.238 19.5869C102.712 19.5869 101.521 19.1135 100.669 18.1631C99.8175 17.2163 99.3916 15.8835 99.3916 14.172C99.3916 12.3294 99.7836 10.9384 100.568 10.0025C101.351 9.06668 102.471 8.60059 103.929 8.60059C105.252 8.60059 106.292 8.99749 107.046 9.7877C107.804 10.5779 108.181 11.7577 108.181 13.3236V13.797H101.37C101.385 15.8107 101.612 17.2491 102.056 18.1048C102.497 18.9605 103.247 19.3902 104.295 19.3902C105.06 19.3902 105.701 19.1863 106.228 18.7785C106.752 18.3706 107.091 17.7662 107.242 16.9614C107.404 16.9869 107.529 17.067 107.612 17.1981C107.694 17.3292 107.736 17.4675 107.736 17.6132C107.736 17.8754 107.608 18.1631 107.348 18.4726C107.088 18.7821 106.703 19.0443 106.191 19.2628C105.678 19.4777 105.03 19.5869 104.238 19.5869ZM101.378 13.604H106.123C106.123 11.8779 105.953 10.6471 105.61 9.91151C105.271 9.17591 104.698 8.80449 103.892 8.80449C103.059 8.80449 102.452 9.17225 102.06 9.91151C101.672 10.6471 101.446 11.8779 101.378 13.604Z" fill="#F9FAFB"/>
<path d="M114.773 19.5869V19.3867H115.039C115.633 19.3867 116.06 19.2643 116.318 19.0233C116.576 18.7823 116.703 18.3856 116.703 17.8368V10.5768C116.703 10.0132 116.576 9.61282 116.318 9.36808C116.06 9.12706 115.633 9.00472 115.039 9.00472H114.979V8.80448H118.592V10.8141H118.633C118.726 10.4656 118.868 10.1245 119.059 9.78704C119.25 9.45336 119.534 9.17156 119.912 8.94165C120.29 8.71547 120.809 8.60059 121.475 8.60059C122.137 8.60059 122.653 8.7303 123.016 8.99361C123.382 9.25685 123.562 9.62021 123.562 10.0911C123.562 10.4953 123.416 10.8289 123.124 11.0959C122.833 11.3629 122.35 11.5001 121.673 11.5001C121.673 10.6696 121.531 10.0949 121.247 9.77967C120.963 9.46447 120.645 9.30873 120.293 9.30873C119.901 9.30873 119.59 9.44598 119.358 9.72032C119.126 9.99474 118.958 10.3506 118.85 10.7882C118.741 11.2257 118.674 11.6743 118.648 12.1342C118.621 12.5976 118.606 13.024 118.606 13.4096V17.733C118.606 18.3225 118.734 18.7452 118.992 19.0011C119.25 19.2569 119.676 19.383 120.271 19.383H120.536V19.5832H114.773V19.5869Z" fill="#F9FAFB"/>
<path d="M129.025 19.5869C127.668 19.5869 126.603 19.1316 125.826 18.2246C125.049 17.3139 124.66 15.9333 124.66 14.0756C124.66 12.2324 125.035 10.8591 125.781 9.95573C126.527 9.05232 127.627 8.60059 129.084 8.60059C130.441 8.60059 131.506 9.05232 132.284 9.95573C133.061 10.8591 133.449 12.2324 133.449 14.0756C133.449 15.9333 133.072 17.3175 132.322 18.2246C131.565 19.1352 130.469 19.5869 129.025 19.5869ZM129.064 19.3902C129.98 19.3902 130.635 18.9822 131.031 18.1663C131.427 17.3503 131.625 15.9843 131.625 14.0756C131.625 12.1777 131.427 10.8263 131.031 10.014C130.635 9.20532 129.972 8.79731 129.046 8.79731C128.116 8.79731 127.457 9.20166 127.068 10.014C126.68 10.8227 126.485 12.1777 126.485 14.0756C126.485 15.9843 126.683 17.3503 127.079 18.1663C127.471 18.9822 128.134 19.3902 129.064 19.3902Z" fill="#F9FAFB"/>
<path d="M135.216 25.076V24.8648C136.128 24.8648 136.868 24.7901 137.438 24.6415C138.005 24.4929 138.456 24.2584 138.787 23.9412C139.12 23.6239 139.401 23.2127 139.628 22.7083C139.856 22.2071 140.093 21.6079 140.343 20.9152L136.056 9.97843C135.887 9.52439 135.721 9.21903 135.558 9.05462C135.396 8.89021 135.191 8.81198 134.941 8.81198H134.548V8.60059H139.245V8.81198H139.188C138.823 8.81198 138.531 8.87069 138.318 8.99197C138.102 9.11333 137.994 9.32866 137.994 9.63788C137.994 9.8806 138.073 10.2055 138.228 10.6165L139.913 15.0554C140.108 15.5799 140.318 16.1592 140.541 16.7973C140.761 17.4353 140.945 17.9951 141.09 18.4765C141.259 17.9246 141.421 17.4001 141.58 16.9069C141.735 16.4097 141.868 15.9792 141.974 15.6112L143.402 10.7496C143.521 10.366 143.579 10.0489 143.579 9.79442C143.579 9.14465 143.149 8.81583 142.287 8.81583H141.465V8.60452H145.534V8.81583H145.379C144.896 8.81583 144.546 8.92153 144.333 9.13292C144.116 9.34432 143.903 9.79056 143.698 10.4717L140.84 20.0697C140.541 21.0875 140.245 21.9252 139.96 22.575C139.671 23.2247 139.339 23.7339 138.961 24.1058C138.582 24.4737 138.109 24.7275 137.543 24.8688C136.976 25.0094 136.262 25.0801 135.399 25.0801H135.216V25.076Z" fill="#F9FAFB"/>
<path d="M150.104 19.5869C149.022 19.5869 148.177 19.3283 147.559 18.8074C146.943 18.2865 146.633 17.5725 146.633 16.6619C146.633 15.6492 147.028 14.8915 147.824 14.3888C148.615 13.8898 149.817 13.6129 151.431 13.5583L153.177 13.5V12.0211C153.177 11.2816 153.134 10.6769 153.049 10.2034C152.963 9.72986 152.781 9.37648 152.502 9.14702C152.223 8.91756 151.792 8.80097 151.218 8.80097C150.403 8.80097 149.883 9.03775 149.651 9.51131C149.418 9.98481 149.301 10.7315 149.301 11.7442C148.712 11.7442 148.265 11.6532 147.967 11.4674C147.665 11.2816 147.514 10.9793 147.514 10.5567C147.514 10.0832 147.684 9.70437 148.029 9.4202C148.375 9.13611 148.828 8.92848 149.398 8.79731C149.965 8.66621 150.601 8.60059 151.303 8.60059C152.595 8.60059 153.557 8.85926 154.197 9.37289C154.837 9.88652 155.155 10.768 155.155 12.0211V17.9295C155.155 18.4031 155.252 18.7345 155.45 18.9167C155.648 19.1024 155.981 19.1935 156.459 19.1935H156.52V19.3902H153.344V17.3139H153.301C153.076 18.1043 152.68 18.6799 152.11 19.0441C151.547 19.4084 150.876 19.5869 150.104 19.5869ZM150.527 19.3101C151.047 19.3101 151.505 19.1862 151.904 18.9349C152.304 18.6836 152.618 18.3484 152.839 17.9258C153.064 17.5033 153.177 17.0517 153.177 16.5635V13.7185L151.83 13.7768C150.64 13.8279 149.814 14.0865 149.36 14.5491C148.902 15.0117 148.677 15.7876 148.677 16.8804C148.673 18.5014 149.29 19.3101 150.527 19.3101Z" fill="#F9FAFB"/>
<path d="M157.619 19.5869V19.3854H157.872C158.439 19.3854 158.845 19.2623 159.091 19.0199C159.337 18.7774 159.459 18.3782 159.459 17.8261V5.98554C159.459 5.41851 159.337 5.01558 159.091 4.76942C158.845 4.52693 158.439 4.40384 157.872 4.40384H157.619V4.20605H161.273V17.7254C161.273 18.3185 161.394 18.7438 161.64 19.0012C161.886 19.2586 162.292 19.3854 162.859 19.3854H163.112V19.5869H157.619Z" fill="#F9FAFB"/>
<path d="M169.058 19.5869C167.531 19.5869 166.34 19.1135 165.488 18.1631C164.637 17.2163 164.211 15.8835 164.211 14.172C164.211 12.3294 164.603 10.9384 165.386 10.0025C166.171 9.06668 167.29 8.60059 168.749 8.60059C170.072 8.60059 171.112 8.99749 171.865 9.7877C172.623 10.5779 173 11.7577 173 13.3236V13.797H166.189C166.204 15.8107 166.43 17.2491 166.875 18.1048C167.316 18.9605 168.067 19.3902 169.114 19.3902C169.88 19.3902 170.52 19.1863 171.048 18.7785C171.572 18.3706 171.911 17.7662 172.061 16.9614C172.223 16.9869 172.348 17.067 172.431 17.1981C172.514 17.3292 172.555 17.4675 172.555 17.6132C172.555 17.8754 172.427 18.1631 172.167 18.4726C171.907 18.7821 171.523 19.0443 171.01 19.2628C170.497 19.4777 169.849 19.5869 169.058 19.5869ZM166.193 13.604H170.938C170.938 11.8779 170.769 10.6471 170.426 9.91151C170.087 9.17591 169.514 8.80449 168.707 8.80449C167.875 8.80449 167.268 9.17225 166.875 9.91151C166.491 10.6471 166.265 11.8779 166.193 13.604Z" fill="#F9FAFB"/>
<path d="M56.4552 27.2773C57.5974 27.2773 58.4494 27.5707 59.004 28.1552C59.5622 28.7397 59.8413 29.6659 59.8413 30.9269V38.0653H58.9856L58.7653 36.2711H58.7248C58.3649 36.8707 57.9279 37.3518 57.4101 37.7161C56.8923 38.0796 56.1687 38.2637 55.2395 38.2637C54.2957 38.2637 53.5465 38.0103 52.9882 37.5065C52.43 37.0027 52.1509 36.2643 52.1509 35.2937C52.1509 34.2423 52.5512 33.4376 53.3555 32.8825C54.1598 32.3236 55.3387 32.0114 56.8922 31.945L58.7065 31.8462V31.1071C58.7065 30.0558 58.5155 29.3167 58.1299 28.883C57.7442 28.4531 57.1751 28.2367 56.4148 28.2367C55.9117 28.2367 55.4195 28.3061 54.9421 28.4456C54.4646 28.5859 53.9909 28.788 53.5281 29.0557L53.1498 28.1371C53.6272 27.8837 54.1451 27.6778 54.7033 27.5194C55.2616 27.3618 55.8456 27.2773 56.4552 27.2773ZM58.7065 32.7203L57.0538 32.8018C55.8051 32.8531 54.8723 33.0846 54.2553 33.4889C53.6383 33.8931 53.3298 34.5033 53.3298 35.3117C53.3298 35.9626 53.5208 36.4589 53.899 36.7968C54.2774 37.1354 54.7989 37.3043 55.4636 37.3043C56.4846 37.3043 57.2815 36.9921 57.8544 36.3669C58.4237 35.7424 58.7102 34.8638 58.7102 33.7355V32.7203H58.7065Z" fill="#F9FAFB"/>
<path d="M66.8732 38.2637C65.3312 38.2637 64.1419 37.7901 63.3011 36.8399C62.4604 35.8898 62.0381 34.5541 62.0381 32.8292C62.0381 31.6479 62.2512 30.6421 62.6774 29.8131C63.1036 28.9834 63.6963 28.3525 64.4518 27.9233C65.2072 27.4904 66.0906 27.2773 67.1018 27.2773C67.6054 27.2773 68.0819 27.3248 68.5313 27.4166C68.9808 27.5085 69.3798 27.6372 69.7285 27.7946L69.3914 28.7892C68.6476 28.4586 67.8728 28.29 67.0591 28.29C65.8387 28.29 64.905 28.6935 64.2542 29.5044C63.6033 30.316 63.2779 31.4168 63.2779 32.8112C63.2779 34.1393 63.5684 35.2144 64.1496 36.0366C64.7307 36.858 65.6295 37.2691 66.8499 37.2691C67.3807 37.2691 67.8766 37.2179 68.3299 37.1117C68.7831 37.0048 69.2016 36.8655 69.5812 36.6931V37.7095C69.2442 37.8819 68.8529 38.0175 68.4035 38.1168C67.9618 38.2162 67.4505 38.2637 66.8732 38.2637Z" fill="#F9FAFB"/>
<path d="M75.1319 27.2773C76.2741 27.2773 77.1225 27.5707 77.6807 28.1552C78.239 28.7397 78.5181 29.6659 78.5181 30.9269V38.0653H77.6624L77.442 36.2711H77.4016C77.0417 36.8707 76.6046 37.3518 76.0869 37.7161C75.569 38.0796 74.8455 38.2637 73.9163 38.2637C72.9724 38.2637 72.2232 38.0103 71.665 37.5065C71.1068 37.0027 70.8276 36.2643 70.8276 35.2937C70.8276 34.2423 71.228 33.4376 72.0323 32.8825C72.8366 32.3236 74.0155 32.0114 75.569 31.945L77.3833 31.8462V31.1071C77.3833 30.0558 77.1923 29.3167 76.8067 28.883C76.421 28.4531 75.8518 28.2367 75.0915 28.2367C74.5884 28.2367 74.0962 28.3061 73.6188 28.4456C73.1414 28.5859 72.6676 28.788 72.2049 29.0557L71.8266 28.1371C72.3041 27.8837 72.8218 27.6778 73.3801 27.5194C73.9384 27.358 74.5223 27.2773 75.1319 27.2773ZM77.3833 32.7203L75.7305 32.8018C74.4819 32.8531 73.5491 33.0846 72.932 33.4889C72.3151 33.8931 72.0065 34.5033 72.0065 35.3117C72.0065 35.9626 72.1976 36.4589 72.5758 36.7968C72.9541 37.1354 73.4756 37.3043 74.1403 37.3043C75.1614 37.3043 75.9583 36.9921 76.5312 36.3669C77.1005 35.7424 77.3869 34.8638 77.3869 33.7355V32.7203H77.3833Z" fill="#F9FAFB"/>
<path d="M85.5301 38.2637C84.3374 38.2637 83.4214 37.8075 82.7789 36.8945C82.1364 35.9822 81.8135 34.6425 81.8135 32.8716C81.8135 31.035 82.1496 29.6364 82.8251 28.6796C83.4972 27.7228 84.4296 27.241 85.6224 27.241C86.3605 27.241 86.9635 27.432 87.4281 27.8187C87.8927 28.2053 88.2452 28.6909 88.4824 29.2762H88.5549C88.5319 28.956 88.5121 28.6026 88.5022 28.2159C88.489 27.8293 88.4857 27.4909 88.4857 27.1964V22.8828H89.5039V38.0575H88.6801L88.5187 36.2209H88.4791C88.2419 36.7805 87.8861 37.2593 87.4149 37.6603C86.9437 38.065 86.3177 38.2637 85.5301 38.2637ZM85.6916 37.2887C86.7163 37.2887 87.4379 36.9172 87.8531 36.1695C88.2716 35.4227 88.4791 34.3518 88.4791 32.9562V32.7576C88.4791 31.2933 88.2683 30.1703 87.8432 29.394C87.4215 28.6139 86.7131 28.2273 85.7246 28.2273C84.7954 28.2273 84.087 28.6283 83.596 29.434C83.1084 30.2406 82.8646 31.3885 82.8646 32.8792C82.8646 34.3291 83.0985 35.4302 83.5631 36.1733C84.0277 36.9134 84.7361 37.2887 85.6916 37.2887Z" fill="#F9FAFB"/>
<path d="M96.8585 27.2773C97.6477 27.2773 98.3173 27.4866 98.8605 27.905C99.4037 28.3228 99.8103 28.8948 100.084 29.6248C100.357 30.3549 100.49 31.1911 100.49 32.1341V32.9297H93.893C93.9068 34.3236 94.1937 35.3953 94.754 36.1435C95.3177 36.8916 96.124 37.2694 97.1728 37.2694C97.7536 37.2694 98.2593 37.2182 98.6931 37.1114C99.127 37.0052 99.5951 36.8186 100.101 36.5544V37.5885C99.6429 37.8271 99.1851 37.9995 98.7307 38.1056C98.273 38.2125 97.7434 38.2637 97.1352 38.2637C95.738 38.2637 94.6686 37.779 93.9204 36.8111C93.1722 35.8424 92.7998 34.5223 92.7998 32.8492C92.7998 31.7744 92.9604 30.817 93.2815 29.9733C93.6027 29.1296 94.0639 28.4695 94.6618 27.9924C95.2631 27.5159 95.9942 27.2773 96.8585 27.2773ZM96.8585 28.2309C96.0181 28.2309 95.3382 28.5576 94.819 29.2071C94.2996 29.8559 93.9955 30.7801 93.9102 31.9723H99.3969C99.3833 30.8577 99.1749 29.9552 98.7683 29.2658C98.3617 28.5756 97.7229 28.2309 96.8585 28.2309Z" fill="#F9FAFB"/>
<path d="M113.925 27.2812C114.888 27.2812 115.637 27.5832 116.17 28.1926C116.703 28.8012 116.97 29.7616 116.97 31.0692V38.2637H115.89V31.129C115.89 30.1571 115.702 29.4404 115.322 28.9805C114.942 28.5214 114.419 28.293 113.751 28.293C112.838 28.293 112.139 28.5957 111.651 29.1936C111.165 29.7953 110.92 30.7251 110.92 31.9806V38.2637H109.84V31.129C109.84 30.1571 109.648 29.4404 109.26 28.9805C108.874 28.5214 108.348 28.293 107.68 28.293C106.781 28.293 106.088 28.6072 105.598 29.235C105.111 29.862 104.866 30.8339 104.866 32.1408V38.2598H103.786V27.4789H104.653L104.827 29.1821H104.905C105.15 28.6555 105.516 28.2071 106.003 27.8338C106.49 27.4636 107.108 27.2773 107.854 27.2773C108.561 27.2773 109.154 27.4452 109.638 27.7855C110.121 28.1213 110.462 28.6295 110.667 29.3055H110.745C111.026 28.6555 111.442 28.1588 111.989 27.8078C112.536 27.4567 113.179 27.2812 113.925 27.2812Z" fill="#F9FAFB"/>
<path d="M119.167 27.2773H120.389L122.696 33.8529C122.907 34.4351 123.085 34.955 123.227 35.4125C123.373 35.87 123.485 36.2764 123.562 36.6355H123.619C123.699 36.3313 123.809 35.9399 123.954 35.4636C124.099 34.988 124.27 34.4569 124.467 33.8747L126.734 27.2811H127.956L123.518 39.7366C123.19 40.6629 122.787 41.3803 122.315 41.8927C121.842 42.402 121.21 42.6582 120.421 42.6582C120.17 42.6582 119.952 42.6402 119.76 42.5996C119.571 42.559 119.388 42.5117 119.218 42.4606V41.5088C119.534 41.626 119.887 41.6883 120.283 41.6883C120.81 41.6883 121.232 41.5155 121.555 41.1715C121.878 40.8274 122.17 40.3038 122.431 39.6014L123.041 37.8142L119.167 27.2773Z" fill="#F9FAFB"/>
</svg>
