<svg width="41" height="54" viewBox="0 0 41 54" fill="none" xmlns="http://www.w3.org/2000/svg">
<path d="M40.6337 25.9353C40.6337 25.7282 40.6299 25.521 40.6224 25.3139V0H0.577148V33.4003V33.792C0.577148 44.8425 9.56011 53.8329 20.6016 53.8329C31.5113 53.8329 40.4118 45.0534 40.6187 34.1875H40.6224V33.7958V33.4041V26.3308H40.6337V25.9353ZM36.6972 25.5436C36.4865 16.8433 29.355 9.82652 20.6092 9.82652C11.8633 9.82652 4.73182 16.8433 4.52107 25.5436H1.37875C1.58574 15.1069 10.1359 6.68157 20.6129 6.68157C31.0221 6.68157 39.5232 14.9977 39.8392 25.3403V25.5436H36.6972ZM32.7796 25.5436H32.772C32.5651 19.0089 27.1911 13.7548 20.6092 13.7548C14.0309 13.7548 8.65693 19.0089 8.44618 25.5436H8.4349H5.3001C5.51085 17.2764 12.2961 10.6136 20.6054 10.6136C28.9184 10.6136 35.704 17.2764 35.9109 25.5436H32.7796ZM39.8241 34.4775C39.8204 34.5603 39.8204 34.647 39.8128 34.7298C39.8091 34.8089 39.8053 34.8918 39.7978 34.9709C39.794 35.0537 39.7865 35.1366 39.7827 35.2195C39.7752 35.2985 39.7677 35.3814 39.7639 35.4605C39.7564 35.5396 39.7489 35.6225 39.7414 35.7016C39.7338 35.7844 39.7226 35.8635 39.715 35.9464C39.7075 36.0255 39.6962 36.1046 39.6887 36.1799C39.6774 36.2627 39.6661 36.3456 39.6548 36.4247C39.6435 36.5 39.6323 36.5791 39.621 36.6544C39.6097 36.7373 39.5946 36.8202 39.5834 36.903C39.5721 36.9783 39.5608 37.0537 39.5457 37.129C39.5307 37.2119 39.5156 37.2947 39.5006 37.3776C39.4855 37.4529 39.4743 37.5245 39.4592 37.5998C39.4442 37.6827 39.4254 37.7655 39.4065 37.8484C39.3915 37.9199 39.3764 37.9915 39.3614 38.0631C39.3426 38.1459 39.3238 38.2288 39.3012 38.3117C39.2824 38.3832 39.2674 38.451 39.2485 38.5226C39.226 38.6054 39.2034 38.6883 39.1846 38.7711C39.1658 38.8389 39.147 38.9105 39.1282 38.9783C39.1056 39.0612 39.0792 39.144 39.0567 39.2269C39.0379 39.2947 39.0153 39.3625 38.9965 39.4303C38.9702 39.5131 38.9438 39.596 38.9175 39.6788C38.8949 39.7466 38.8761 39.8107 38.8535 39.8747C38.8272 39.9576 38.7971 40.0404 38.767 40.1233C38.7444 40.1873 38.7219 40.2513 38.6993 40.3191C38.6692 40.402 38.6391 40.4848 38.609 40.5639C38.5864 40.628 38.5601 40.692 38.5375 40.756C38.5074 40.8389 38.4736 40.9217 38.4397 41.0008C38.4134 41.0649 38.3908 41.1251 38.3645 41.1892C38.3306 41.272 38.2968 41.3511 38.2591 41.434C38.2328 41.4942 38.2065 41.5545 38.1801 41.6185C38.1425 41.6976 38.1087 41.7805 38.071 41.8596C38.0447 41.9198 38.0146 41.9801 37.9883 42.0404C37.9507 42.1194 37.913 42.1985 37.8717 42.2814C37.8416 42.3417 37.8115 42.3982 37.7844 42.4584C37.743 42.5375 37.7054 42.6166 37.664 42.6919C37.6339 42.7522 37.6038 42.8087 37.5699 42.869C37.5323 42.9405 37.4909 43.0121 37.4533 43.0874L22.0693 34.1988H39.8354C39.8354 34.2176 39.8354 34.2327 39.8354 34.2515C39.8317 34.3193 39.8279 34.3984 39.8241 34.4775ZM36.874 44.0554C36.8251 44.1307 36.7799 44.206 36.731 44.2776C36.6972 44.3303 36.6595 44.3868 36.6257 44.4395C36.5768 44.5149 36.5279 44.5864 36.4752 44.6618C36.4376 44.7145 36.4 44.7672 36.3661 44.8199C36.3134 44.8915 36.2645 44.9631 36.2119 45.0384C36.1742 45.0911 36.1366 45.1439 36.099 45.1966C36.0463 45.2681 35.9937 45.3397 35.941 45.4113C35.9034 45.464 35.862 45.513 35.8244 45.5657C35.7717 45.6372 35.7153 45.705 35.6626 45.7728C35.6212 45.8218 35.5791 45.8745 35.5415 45.9235C35.485 45.9913 35.4286 46.0591 35.3725 46.1269C35.3311 46.1758 35.2897 46.2248 35.2483 46.2775C35.1918 46.3453 35.1354 46.4131 35.0752 46.4771C35.0338 46.5261 34.9886 46.5751 34.9472 46.624C34.887 46.6881 34.8306 46.7559 34.7703 46.8199C34.7252 46.8689 34.6838 46.914 34.6387 46.963C34.5784 47.027 34.5182 47.0911 34.458 47.1551C34.4129 47.2003 34.3677 47.2493 34.3225 47.2945C34.2623 47.3585 34.1984 47.4187 34.1381 47.4828C34.093 47.528 34.0441 47.5732 33.9989 47.6184C33.9349 47.6786 33.8747 47.7389 33.8107 47.7991C33.7618 47.8443 33.7166 47.8895 33.6677 47.931C33.6037 47.9912 33.5398 48.0477 33.4758 48.108C33.4269 48.1532 33.378 48.1946 33.329 48.2398C33.265 48.2963 33.1973 48.3566 33.1333 48.4131C33.0844 48.4583 33.0317 48.4997 32.979 48.5411C32.9113 48.5976 32.8473 48.6503 32.7796 48.7068C32.7269 48.7483 32.6742 48.7897 32.6253 48.8311C32.5575 48.8839 32.4898 48.9404 32.4221 48.9931C32.3694 49.0345 32.3167 49.0759 32.264 49.1136C32.1962 49.1663 32.1285 49.2191 32.057 49.268C32.0044 49.3095 31.9479 49.3471 31.8952 49.3885C31.8275 49.4375 31.7559 49.4902 31.6845 49.5392C31.628 49.5769 31.5716 49.6183 31.5151 49.656C31.4436 49.7049 31.3759 49.7539 31.3043 49.7991C31.2479 49.8368 31.1915 49.8744 31.1351 49.9121C31.0635 49.9573 30.992 50.0062 30.9205 50.0514C30.864 50.0891 30.8038 50.123 30.7474 50.1607C30.691 50.1946 30.6345 50.2322 30.5781 50.2661L21.6967 34.8692L37.0809 43.7578C37.0545 43.803 37.0282 43.8444 37.0019 43.8896C36.9417 43.9424 36.9078 43.9989 36.874 44.0554ZM29.5206 50.8499C29.4453 50.8876 29.3738 50.929 29.2985 50.9667C29.2346 51.0006 29.1706 51.0307 29.1066 51.0608C29.0314 51.0985 28.9561 51.1362 28.8808 51.1701C28.8168 51.2002 28.7529 51.2303 28.6851 51.2605C28.6099 51.2944 28.5346 51.332 28.4593 51.3659C28.3916 51.396 28.3276 51.4224 28.2598 51.4525C28.1846 51.4864 28.1094 51.5203 28.034 51.5505C27.9663 51.5806 27.8986 51.607 27.8309 51.6333C27.7556 51.6635 27.6803 51.6974 27.6013 51.7275C27.5335 51.7538 27.4621 51.7802 27.3944 51.8066C27.319 51.8367 27.24 51.8631 27.1648 51.8932C27.0932 51.9196 27.0255 51.9422 26.954 51.9685C26.8787 51.9949 26.7997 52.0213 26.7244 52.0476C26.6529 52.0702 26.5815 52.0928 26.51 52.1192C26.4347 52.1456 26.3557 52.1682 26.2804 52.1945C26.2089 52.2171 26.1336 52.2397 26.0583 52.2586C25.9831 52.2812 25.9041 52.3038 25.8288 52.3264C25.7535 52.349 25.6783 52.3678 25.603 52.3866C25.5277 52.4092 25.4487 52.428 25.3696 52.4506C25.2944 52.4695 25.2154 52.4883 25.1401 52.5071C25.0649 52.526 24.9859 52.5448 24.9105 52.5636C24.8315 52.5825 24.7525 52.5975 24.6735 52.6164C24.5982 52.6314 24.5191 52.6503 24.4439 52.6653C24.3649 52.6804 24.2858 52.6955 24.2031 52.7105C24.1278 52.7256 24.0525 52.7407 23.9735 52.7557C23.8907 52.7708 23.8117 52.7821 23.7289 52.7971C23.6536 52.8084 23.5783 52.8235 23.4993 52.8348C23.4165 52.8461 23.3337 52.8574 23.2472 52.8687C23.1719 52.88 23.0967 52.8913 23.0214 52.8988C22.9348 52.9101 22.8483 52.9177 22.7617 52.929C22.6902 52.9365 22.615 52.9478 22.5434 52.9553C22.4531 52.9629 22.3591 52.9704 22.2687 52.9817C22.201 52.9892 22.1295 52.993 22.0617 53.0005C21.9639 53.0081 21.8698 53.0118 21.772 53.0194C21.708 53.0231 21.6402 53.0269 21.5763 53.0307C21.4747 53.0344 21.3693 53.0382 21.2677 53.042C21.2075 53.0457 21.1473 53.0457 21.0871 53.0495C21.0532 53.0495 21.0193 53.0495 20.9892 53.0495V35.2684L29.8706 50.6654C29.8141 50.6955 29.7576 50.7294 29.7012 50.7595C29.6448 50.7859 29.5808 50.816 29.5206 50.8499ZM19.9279 53.0344C19.8264 53.0307 19.7209 53.0269 19.6194 53.0231C19.5554 53.0194 19.4876 53.0156 19.4237 53.0118C19.3259 53.0043 19.228 53.0005 19.1339 52.993C19.0624 52.9892 18.9947 52.9817 18.9269 52.9742C18.8366 52.9666 18.7425 52.9591 18.6522 52.9478C18.5769 52.9403 18.5054 52.9327 18.434 52.9214C18.3474 52.9101 18.2608 52.9026 18.1742 52.8913C18.099 52.8838 18.0238 52.8687 17.9484 52.8612C17.8657 52.8499 17.7792 52.8386 17.6963 52.8273C17.6211 52.816 17.5458 52.8009 17.4668 52.7896C17.384 52.7746 17.3049 52.7633 17.2222 52.7482C17.1469 52.7331 17.0716 52.7181 16.9926 52.703C16.9136 52.6879 16.8308 52.6729 16.7518 52.6578C16.6765 52.6427 16.5974 52.6239 16.5222 52.6088C16.4432 52.5938 16.3641 52.5749 16.2851 52.5561C16.2098 52.5373 16.1308 52.5184 16.0556 52.4996C15.9802 52.4808 15.9012 52.4619 15.826 52.4431C15.7469 52.4243 15.6717 52.4017 15.5927 52.3791C15.5174 52.3602 15.4421 52.3376 15.3669 52.3188C15.2878 52.2962 15.2126 52.2736 15.1373 52.251C15.062 52.2284 14.9905 52.2096 14.9153 52.187C14.8362 52.1644 14.761 52.138 14.6857 52.1117C14.6142 52.0891 14.5427 52.0665 14.4712 52.0401C14.3922 52.0137 14.3169 51.9874 14.2416 51.961C14.1701 51.9346 14.1024 51.912 14.0309 51.8857C13.9556 51.8593 13.8766 51.8292 13.8013 51.799C13.7336 51.7727 13.6621 51.7463 13.5944 51.7199C13.5191 51.6898 13.4438 51.6597 13.3648 51.6258C13.297 51.5994 13.2293 51.5693 13.1616 51.5429C13.0863 51.5128 13.0111 51.4789 12.9358 51.445C12.868 51.4149 12.8003 51.3885 12.7364 51.3584C12.661 51.3245 12.5858 51.2906 12.5106 51.2529C12.4465 51.2228 12.3826 51.1927 12.3149 51.1625C12.2395 51.1249 12.1643 51.091 12.0891 51.0533C12.025 51.0232 11.9611 50.9893 11.8971 50.9591C11.8218 50.9215 11.7503 50.8838 11.6751 50.8424C11.6111 50.8085 11.5509 50.7784 11.4869 50.7445C11.4305 50.7143 11.374 50.6842 11.3176 50.6503L20.1989 35.2534V53.0344C20.1651 53.0344 20.1312 53.0344 20.1011 53.0344C20.0484 53.042 19.9882 53.0382 19.9279 53.0344ZM10.3015 50.0514C10.23 50.0062 10.1585 49.9573 10.087 49.9121C10.0305 49.8744 9.97408 49.8368 9.91765 49.7991C9.8461 49.7501 9.77838 49.7049 9.7069 49.656C9.65047 49.6183 9.59396 49.5806 9.53753 49.5392C9.46606 49.4902 9.39827 49.4375 9.32679 49.3885C9.27412 49.3509 9.21769 49.3095 9.16495 49.268C9.09723 49.2153 9.02575 49.1626 8.95796 49.1136C8.90529 49.0722 8.85263 49.0345 8.79996 48.9931C8.73217 48.9404 8.66445 48.8876 8.59674 48.8311C8.544 48.7897 8.49133 48.7483 8.44242 48.7068C8.3747 48.6503 8.31067 48.5976 8.24296 48.5411C8.19029 48.4997 8.14138 48.4545 8.08864 48.4131C8.02092 48.3566 7.95697 48.3001 7.89302 48.2398C7.84404 48.1946 7.79513 48.1532 7.74623 48.108C7.68227 48.0477 7.61824 47.9912 7.55429 47.931C7.50538 47.8858 7.46024 47.8406 7.41126 47.7991C7.3473 47.7389 7.28335 47.6786 7.22308 47.6184C7.17794 47.5732 7.12903 47.528 7.08389 47.4828C7.01993 47.4225 6.95967 47.3585 6.89948 47.2945C6.85433 47.2493 6.80919 47.2003 6.76397 47.1551C6.70378 47.0911 6.64359 47.027 6.58339 46.963C6.53817 46.914 6.49303 46.8689 6.45165 46.8199C6.39146 46.7559 6.33495 46.6918 6.27476 46.624C6.22962 46.5751 6.18823 46.5261 6.14685 46.4771C6.09035 46.4093 6.03016 46.3453 5.97373 46.2775C5.93234 46.2286 5.89089 46.1796 5.8495 46.1269C5.79307 46.0591 5.73664 45.9913 5.68014 45.9235C5.63876 45.8745 5.59738 45.8218 5.55976 45.7728C5.50333 45.705 5.45058 45.6335 5.39415 45.5657C5.35653 45.513 5.31515 45.464 5.27753 45.4113C5.22479 45.3397 5.17212 45.2681 5.11945 45.1966C5.08183 45.1439 5.04421 45.0911 5.00652 45.0384C4.95385 44.9668 4.90494 44.8953 4.85228 44.8199C4.81458 44.7672 4.77696 44.7145 4.7431 44.6618C4.6942 44.5902 4.64153 44.5149 4.59255 44.4395C4.55493 44.3868 4.52107 44.3303 4.48721 44.2776C4.43831 44.2023 4.3894 44.1269 4.34418 44.0554C4.31032 43.9989 4.27647 43.9461 4.24261 43.8896C4.21627 43.8444 4.18994 43.803 4.16353 43.7578L19.5479 34.8692L10.6665 50.2661C10.6101 50.2322 10.5536 50.1983 10.4971 50.1607C10.4181 50.123 10.358 50.0853 10.3015 50.0514ZM3.53889 42.6844C3.49743 42.6053 3.45605 42.5262 3.41843 42.4509C3.38833 42.3906 3.35824 42.3341 3.3319 42.2739C3.29428 42.1948 3.25283 42.1157 3.21521 42.0328C3.18511 41.9726 3.15878 41.9123 3.13244 41.852C3.09482 41.7729 3.05713 41.6901 3.02327 41.611C2.99694 41.5507 2.9706 41.4867 2.94427 41.4264C2.91041 41.3473 2.87655 41.2645 2.84262 41.1854C2.81629 41.1214 2.78995 41.0611 2.76738 40.9971C2.73352 40.9142 2.70342 40.8351 2.66957 40.7523C2.64323 40.6882 2.62059 40.6242 2.59801 40.5602C2.56792 40.4773 2.53782 40.3945 2.50773 40.3154C2.48515 40.2513 2.46258 40.1873 2.44001 40.1195C2.40984 40.0366 2.3835 39.9538 2.35341 39.8709C2.33084 39.8069 2.31203 39.7391 2.28946 39.6751C2.26312 39.5922 2.23679 39.5094 2.21045 39.4265C2.19157 39.3587 2.169 39.2909 2.15019 39.2231C2.12761 39.1402 2.10128 39.0574 2.07871 38.9745C2.0599 38.9067 2.04109 38.8389 2.02228 38.7674C1.99971 38.6845 1.97713 38.6017 1.95825 38.5188C1.93944 38.4472 1.92439 38.3794 1.90558 38.3079C1.88677 38.225 1.8642 38.1422 1.84539 38.0593C1.83034 37.9877 1.81529 37.9162 1.80025 37.8446C1.78144 37.7618 1.76639 37.6789 1.7475 37.596C1.73246 37.5245 1.71741 37.4491 1.70612 37.3738C1.69107 37.291 1.67602 37.2081 1.66098 37.1252C1.64969 37.0499 1.63464 36.9746 1.62336 36.8993C1.60831 36.8164 1.59702 36.7335 1.58574 36.6507C1.57445 36.5754 1.56316 36.4963 1.55188 36.4209C1.54059 36.3381 1.52923 36.2552 1.51795 36.1761C1.50666 36.097 1.49914 36.0179 1.49161 35.9426C1.48409 35.8597 1.4728 35.7806 1.46528 35.6978C1.45776 35.6187 1.45023 35.5358 1.44271 35.4567C1.43518 35.3776 1.42766 35.2948 1.4239 35.2157C1.41637 35.1328 1.41261 35.05 1.40885 34.9671C1.40509 34.888 1.39756 34.8089 1.3938 34.7261C1.39004 34.6432 1.38628 34.5566 1.38252 34.4737C1.37875 34.3946 1.37499 34.3155 1.37499 34.2364C1.37499 34.2176 1.37499 34.2025 1.37499 34.1837H19.1414L3.75716 43.0723C3.7157 43.0008 3.67808 42.9292 3.64046 42.8539C3.60284 42.8012 3.56899 42.7409 3.53889 42.6844ZM8.43866 26.327V33.4003H1.37123V26.327H4.51355H8.43866ZM12.3675 26.327H16.2926V33.4003H9.22521V26.327H12.3675ZM31.9855 26.327V33.4003H24.9293V26.327H28.8545H31.9855ZM24.1429 26.327V33.4003H17.0754V26.327H24.1429ZM17.098 25.5436C17.2936 23.7772 18.7952 22.3987 20.6092 22.3987C22.423 22.3987 23.9246 23.7772 24.1203 25.5436H17.098ZM24.9293 25.5436H24.9105C24.7111 23.3441 22.8596 21.6153 20.6092 21.6153C18.3587 21.6153 16.5072 23.3441 16.3077 25.5436H16.2889H13.1578C13.3648 21.6078 16.6275 18.4703 20.6092 18.4703C24.5907 18.4703 27.8535 21.6078 28.0605 25.5436H24.9293ZM31.9855 25.5436H28.8432C28.6362 21.1746 25.0235 17.6832 20.6092 17.6832C16.1948 17.6832 12.5783 21.1746 12.3751 25.5436H9.23274C9.43972 19.4421 14.4637 14.542 20.6129 14.542C26.7584 14.542 31.7823 19.4421 31.9855 25.5436ZM39.8392 0.787173V20.3385C37.4119 12.0034 29.7125 5.89439 20.6129 5.89439C11.4869 5.89439 3.76844 12.0373 1.3637 20.4063V0.783411H39.8392V0.787173ZM39.8392 33.4003H32.7796V26.327H36.7047H39.8354V33.4003H39.8392Z" fill="#F9FAFB"/>
</svg>
